<svg xmlns="http://www.w3.org/2000/svg" width="20" height="20" viewBox="0 0 20 20"><defs><style>.a{fill:#8193b1;}</style></defs><path class="a" d="M75.6,82.2a2.276,2.276,0,0,1-.35-1.491,1.022,1.022,0,0,1,.4-.561,2.585,2.585,0,0,0,.881-1.212,7.059,7.059,0,0,0,.244-.829c.245-.98.332-1.131,1.043-1.049a2.38,2.38,0,0,1,1.247.617,3.1,3.1,0,0,0,1.392.7A8.587,8.587,0,0,1,75.6,82.2m-9.849-3.807a2.815,2.815,0,0,0,1.781-.819,2.733,2.733,0,0,0,.541-1.957c0-.834.05-1.062.471-1.219.577-.214.838-.009,1.379.471a3.2,3.2,0,0,0,1.157.749,2.38,2.38,0,0,0,1.8-.218,2.4,2.4,0,0,0,1.161-1.446h0l.005-.021a.145.145,0,0,0,.006-.016c.006-.021.006-.04.012-.061a2.889,2.889,0,0,0,.09-.438c.009-.065.012-.124.018-.187s.01-.1.012-.15a6.952,6.952,0,0,0-.019-.986q-.018-.218-.023-.436a.736.736,0,0,1,.1-.384,3.56,3.56,0,0,1,.644-.15,2.867,2.867,0,0,0,1.764-.755l.006,0h0c.026-.031.055-.058.079-.091a1.986,1.986,0,0,0-.118-2.829q-.1-.079-.2-.149c-.481-.334-.686-.57-.545-1a3.656,3.656,0,0,1,.13-.346,8.536,8.536,0,0,1,5.139,10.99,1.594,1.594,0,0,1-.316.061c-.294,0-.506-.154-.886-.449a3.712,3.712,0,0,0-1.956-.906c-2-.238-2.375,1.239-2.6,2.12a5.45,5.45,0,0,1-.193.663,1.187,1.187,0,0,1-.45.618,2.411,2.411,0,0,0-.846,1.187A3.162,3.162,0,0,0,74.16,82.5a8.471,8.471,0,0,1-8.408-4.107M73.1,65.429a8.577,8.577,0,0,1,1.519.142c-.036.09-.07.179-.1.281a2.239,2.239,0,0,0,1.09,2.614c.037.026.069.047.089.063.087.074.309.272-.081.856-.138.118-.279.139-.625.156a2.3,2.3,0,0,0-1.786.748l0,0v0l-.008.007c-.013.014-.021.03-.033.044a1.862,1.862,0,0,0-.434,1.224,6.96,6.96,0,0,0,.019.813,5.288,5.288,0,0,1,.009.806,2.612,2.612,0,0,1-.07.351.979.979,0,0,1-.486.608.958.958,0,0,1-.7.106,2.161,2.161,0,0,1-.631-.454,2.55,2.55,0,0,0-2.825-.74,2.318,2.318,0,0,0-1.4,2.551,1.724,1.724,0,0,1-.166,1,1.933,1.933,0,0,1-1.4.384A8.553,8.553,0,0,1,73.1,65.429M73.1,64a10,10,0,1,0,10,10,10.011,10.011,0,0,0-10-10" transform="translate(-63.104 -64)"/></svg>