<svg xmlns="http://www.w3.org/2000/svg" width="17.426" height="19.8" viewBox="0 0 17.426 19.8"><defs><style>.a{fill:#8193b1;stroke:#8193b1;stroke-width:0.2px;}</style></defs><g transform="translate(-135.58 -94.62)"><path class="a" d="M151.05,114.32H137.537a1.861,1.861,0,0,1-1.857-1.857V96.577a1.861,1.861,0,0,1,1.857-1.857H147.3l5.147,4.289.458.458v13A1.868,1.868,0,0,1,151.05,114.32ZM137.537,96.083a.509.509,0,0,0-.505.505v15.887a.509.509,0,0,0,.505.505H151.05a.509.509,0,0,0,.505-.505V100.031l-.012-.012-4.724-3.936ZM147.289,94.732Z" transform="translate(0 0)"/><path class="a" d="M295.231,109.6h-4.853a1.861,1.861,0,0,1-1.857-1.857v-4.324l1.351.194v4.13a.509.509,0,0,0,.505.505h4.853Zm-3.725,3.325H282.27a.67.67,0,1,1,0-1.34h9.224a.67.67,0,1,1,.012,1.34Zm0,4.019H282.27a.672.672,0,0,1-.67-.682.68.68,0,0,1,.67-.682h9.224a.682.682,0,0,1,.012,1.363Z" transform="translate(-142.571 -8.504)"/></g></svg>