<svg xmlns="http://www.w3.org/2000/svg" width="20" height="19.005" viewBox="0 0 20 19.005"><defs><style>.a{fill:#8193b1;}</style></defs><g transform="translate(-96 -128)"><path class="a" d="M115.231,128H96.769a.769.769,0,0,0-.769.769v13.846a.769.769,0,0,0,.769.769h6.923v-1.538H97.538V129.538h16.923v12.308h-6.154a.77.77,0,0,0-.545.225l-3.845,3.846,1.088,1.088,3.621-3.621h6.6a.769.769,0,0,0,.769-.769V128.769a.769.769,0,0,0-.769-.769"/><path class="a" d="M247.676,399.929a1.154,1.154,0,1,0-1.154,1.124,1.154,1.154,0,0,0,1.154-1.124m-7.692,0a1.154,1.154,0,1,0,1.154-1.124,1.154,1.154,0,0,0-1.154,1.124m13.077,0a1.154,1.154,0,1,0-1.154,1.124,1.154,1.154,0,0,0,1.154-1.124" transform="translate(-140.522 -264.237)"/></g></svg>