<svg xmlns="http://www.w3.org/2000/svg" width="19.6" height="18.307" viewBox="0 0 19.6 18.307"><defs><style>.a{fill:#8193b1;stroke:#8193b1;stroke-width:0.2px;}</style></defs><path class="a" d="M50.753,76.933H49.468V73.551a.647.647,0,0,0-.647-.647H42.347V71.113H45.58a.647.647,0,0,0,.647-.647v-5.82A.647.647,0,0,0,45.58,64H37.82a.647.647,0,0,0-.647.647v5.82a.647.647,0,0,0,.647.647h3.233V72.9H34.627a.647.647,0,0,0-.647.646l0,3.383h-1.33A.647.647,0,0,0,32,77.58v3.88a.647.647,0,0,0,.647.647h3.88a.647.647,0,0,0,.647-.647V77.58a.647.647,0,0,0-.647-.647H35.27l0-2.736h5.781v2.736H39.76a.647.647,0,0,0-.647.647v3.88a.647.647,0,0,0,.647.647h3.88a.647.647,0,0,0,.647-.647V77.58a.647.647,0,0,0-.647-.647H42.347V74.2h5.828v2.736h-1.3a.647.647,0,0,0-.647.647v3.88a.647.647,0,0,0,.647.647h3.88a.647.647,0,0,0,.647-.647V77.58A.647.647,0,0,0,50.753,76.933ZM38.467,65.293h6.467V69.82H38.467ZM35.88,80.813H33.293V78.227H35.88Zm7.113,0H40.407V78.227h2.587Zm7.113,0H47.52V78.227h2.587Z" transform="translate(-31.9 -63.9)"/></svg>