<svg xmlns="http://www.w3.org/2000/svg" width="16.548" height="19.04" viewBox="0 0 16.548 19.04"><defs><style>.a{fill:#1cc2fd;}</style></defs><g transform="translate(-92.821 -30.324)"><path class="a" d="M103.355,355.19a.668.668,0,0,1,.877.146l.045.064,4.9,7.779.027.079a3.289,3.289,0,0,1-2.925,4.294l-.207.007H96.115a3.282,3.282,0,0,1-3.172-4.167l.053-.171.025-.072,4.755-7.664a.668.668,0,0,1,1.173.637l-.037.068-4.67,7.523-.026.092a1.97,1.97,0,0,0-.051.313l-.007.159A1.951,1.951,0,0,0,96,366.218l.116,0h9.961a1.977,1.977,0,0,0,.607-.1,1.944,1.944,0,0,0,1.288-2.339l-.013-.045-4.811-7.63a.668.668,0,0,1,.145-.875l.063-.046Z" transform="translate(0 -318.194)"/><path class="a" d="M341.646,49.293a.668.668,0,0,1,.079,1.332l-.078,0H339.9a.668.668,0,0,1-.078-1.332l.078,0h1.751Zm.883,2.2a.668.668,0,0,1,.078,1.332l-.078,0H339.9a.668.668,0,0,1-.078-1.332l.078,0Zm-1.5,2.2a.668.668,0,0,1,.078,1.332l-.078,0H339.9a.668.668,0,0,1-.078-1.332l.078,0h1.136Zm-3.237-14.449a.668.668,0,0,1,.664.591l0,.078v6.336a.668.668,0,0,1-1.332.078l0-.078V39.91A.668.668,0,0,1,337.795,39.242Zm5.262,0a.668.668,0,0,1,.663.591l0,.078v6.336a.668.668,0,0,1-1.332.078l0-.078V39.91A.668.668,0,0,1,343.057,39.242Z" transform="translate(-239.364 -8.738)"/><path class="a" d="M257.738,30.324a.668.668,0,0,1,.078,1.332l-.078,0h-8.763a.668.668,0,0,1-.078-1.332l.078,0Z" transform="translate(-152.341)"/></g></svg>