<svg xmlns="http://www.w3.org/2000/svg" width="16.416" height="17.657" viewBox="0 0 16.416 17.657"><defs><style>.a,.b{fill:#8193b1;stroke:#8193b1;}.a{stroke-width:0.1px;}.b{stroke-width:0.2px;}</style></defs><g transform="translate(-3094.95 -532.265)"><path class="a" d="M51.6,0H38.124a2.271,2.271,0,0,0-2.259,2.259V15.286a2.271,2.271,0,0,0,2.259,2.271H51.6a.585.585,0,0,0,.585-.585V.585A.585.585,0,0,0,51.6,0ZM38.124,1.17H51V13.027H38.124a2.236,2.236,0,0,0-1.089.293V2.259A1.1,1.1,0,0,1,38.124,1.17ZM51,16.386H38.124a1.094,1.094,0,1,1,0-2.189H51Z" transform="translate(3059.135 532.315)"/><path class="b" d="M412.612,16.358h2.625v2.626a.583.583,0,0,0,1.166,0V16.358h2.625a.583.583,0,1,0,0-1.166H416.4V12.566a.583.583,0,0,0-1.166,0v2.626h-2.625a.583.583,0,1,0,0,1.166Z" transform="translate(2687.337 523.575)"/></g></svg>