<svg xmlns="http://www.w3.org/2000/svg" width="19.433" height="19.432" viewBox="0 0 19.433 19.432"><defs><style>.a{fill:#1cc2fd;stroke:#1cc2fd;stroke-width:0.2px;}</style></defs><g transform="translate(-63.9 -63.57)"><path class="a" d="M344.458,245.67a3.678,3.678,0,1,0,3.678,3.678A3.678,3.678,0,0,0,344.458,245.67Zm0,1.282a2.4,2.4,0,1,1-2.4,2.4A2.4,2.4,0,0,1,344.458,246.952Z" transform="translate(-270.828 -178.086)"/><path class="a" d="M229.595,575.16a5.828,5.828,0,0,1,5.915,5.433l.006.269h-1.282a4.52,4.52,0,0,0-4.385-4.413l-.255-.007h-.573a4.549,4.549,0,0,0-4.633,4.178l-.007.242H223.1a5.8,5.8,0,0,1,5.644-5.7l.278-.006h.573Z" transform="translate(-155.679 -500.49)"/><path class="a" d="M73.616,63.67A9.616,9.616,0,1,1,64,73.286,9.616,9.616,0,0,1,73.616,63.67Zm0,1.282a8.334,8.334,0,1,0,8.334,8.334A8.334,8.334,0,0,0,73.616,64.952Z" transform="translate(0)"/></g></svg>