<svg xmlns="http://www.w3.org/2000/svg" width="18.694" height="16.737" viewBox="0 0 18.694 16.737"><defs><style>.a{fill:#1cc2fd;stroke:#1cc2fd;stroke-width:0.1px;}</style></defs><path class="a" d="M113.771,46.7h3.2a.841.841,0,0,1,.89.89h0a.892.892,0,0,1-.89.89h-3.2a.892.892,0,0,1-.89-.89h0A.841.841,0,0,1,113.771,46.7Zm7.562,0h9.253a.892.892,0,0,1,.89.89h0a.957.957,0,0,1-.89.89h-9.253a.892.892,0,0,1-.89-.89h0A.841.841,0,0,1,121.333,46.7Zm-7.562,7.384h16.815a.957.957,0,0,1,.89.89h0a.957.957,0,0,1-.89.89H113.771a.892.892,0,0,1-.89-.89h0A.892.892,0,0,1,113.771,54.082Zm0,7.562h3.2a.821.821,0,0,1,.89.8h0a.841.841,0,0,1-.89.89h-3.2a.841.841,0,0,1-.89-.89h0A.822.822,0,0,1,113.771,61.645Zm7.562,0h9.253a.878.878,0,0,1,.89.8h0a.892.892,0,0,1-.89.89h-9.253a.841.841,0,0,1-.89-.89h0A.822.822,0,0,1,121.333,61.645Z" transform="translate(-112.831 -46.648)"/></svg>