<svg xmlns="http://www.w3.org/2000/svg" width="20" height="22.609" viewBox="0 0 20 22.609"><defs><style>.a{fill:#8193b1;}</style></defs><g transform="translate(-160 -96)"><path class="a" d="M769.739,160a1.739,1.739,0,1,0,1.739,1.739A1.744,1.744,0,0,0,769.739,160" transform="translate(-591.478 -62.261)"/><path class="a" d="M320,417.739h10.435V416H320Z" transform="translate(-155.652 -311.304)"/><path class="a" d="M320,545.739h6.957V544H320Z" transform="translate(-155.652 -435.826)"/><path class="a" d="M320,673.739h6.957V672H320Z" transform="translate(-155.652 -560.348)"/><path class="a" d="M177.391,102.957V116.87H161.739V99.478h2.609v1.739h10.435V96H164.348v1.739H160.87a.822.822,0,0,0-.87.87v19.13a.822.822,0,0,0,.87.87h17.391a.822.822,0,0,0,.87-.87V102.957Zm-11.3-5.217h6.957v1.739h-6.957Z" transform="translate(0 0)"/></g></svg>