<svg xmlns="http://www.w3.org/2000/svg" width="20" height="20" viewBox="0 0 20 20"><defs><style>.a{fill:#8193b1;}</style></defs><path class="a" d="M134.667,129.667a2.5,2.5,0,1,1-2.5,2.5,2.5,2.5,0,0,1,2.5-2.5m0,6.667a4.167,4.167,0,1,0-4.167-4.167,4.171,4.171,0,0,0,4.167,4.167m8.333-2.5a1.667,1.667,0,1,1-1.668,1.667A1.667,1.667,0,0,1,143,133.833m0,5a3.333,3.333,0,1,0-3.333-3.333A3.337,3.337,0,0,0,143,138.833m1.786,1.669h-3.571c-.077,0-.15.011-.225.017A4.17,4.17,0,0,0,137.167,138h-5A4.172,4.172,0,0,0,128,142.167V148h1.667v-5.833a2.5,2.5,0,0,1,2.5-2.5h5a2.5,2.5,0,0,1,2.5,2.5V148h1.667v-5.831h3.452a1.549,1.549,0,0,1,1.548,1.547V148H148v-4.284a3.217,3.217,0,0,0-3.214-3.213" transform="translate(-128 -128)"/></svg>