<svg xmlns="http://www.w3.org/2000/svg" width="18.628" height="19.806" viewBox="0 0 18.628 19.806"><defs><style>.a{fill:#8193b1;stroke:#8193b1;stroke-width:0.2px;}</style></defs><path class="a" d="M41.47,12.419a2.489,2.489,0,0,1-1.239-.3L34.823,8.958a1.278,1.278,0,0,1-.7-1.082,1.266,1.266,0,0,1,.7-1.082l5.408-3.157a2.633,2.633,0,0,1,2.478,0l5.408,3.157a1.278,1.278,0,0,1,.7,1.082,1.278,1.278,0,0,1-.7,1.082l-5.408,3.157a2.489,2.489,0,0,1-1.239.3Zm-5.644-4.74a.221.221,0,0,0,0,.374L40.88,11a1.377,1.377,0,0,0,1.18,0l5.054-2.95a.221.221,0,0,0,0-.374L42.06,4.729a1.377,1.377,0,0,0-1.18,0Zm3.835,15.2a1.491,1.491,0,0,1-.728-.207l-5.438-3.1a2.647,2.647,0,0,1-1.239-2.144l.029-6.254a1.194,1.194,0,0,1,1.878-1.092l5.438,3.1a2.647,2.647,0,0,1,1.239,2.144l-.029,6.254a1.278,1.278,0,0,1-.59,1.151,1.085,1.085,0,0,1-.561.147ZM33.9,11.4a.217.217,0,0,0-.324.187l-.03,5.851a1.367,1.367,0,0,0,.59,1.023l5.084,2.9a.217.217,0,0,0,.325-.187l.029-5.851a1.367,1.367,0,0,0-.59-1.023L33.9,11.4Zm9.381,11.485a1.111,1.111,0,0,1-.561-.148,1.267,1.267,0,0,1-.59-1.151L42.1,15.33a2.647,2.647,0,0,1,1.239-2.144l5.438-3.1a1.194,1.194,0,0,1,1.878,1.092l.029,6.254a2.647,2.647,0,0,1-1.239,2.144l-5.438,3.1A1.491,1.491,0,0,1,43.279,22.882Zm6.087-11.3a.217.217,0,0,0-.324-.187l-5.084,2.9a1.384,1.384,0,0,0-.59,1.023l.03,5.851a.217.217,0,0,0,.324.187l5.084-2.9a1.384,1.384,0,0,0,.59-1.023l-.029-5.851Z" transform="translate(-32.156 -3.175)"/></svg>