<svg xmlns="http://www.w3.org/2000/svg" width="18.969" height="19.68" viewBox="0 0 18.969 19.68"><defs><style>.a{fill:#8193b1;stroke:#8193b1;stroke-width:0.3px;}</style></defs><g transform="translate(-69.38 -55.556)"><path class="a" d="M73.261,66.115V56.364a.658.658,0,0,0-1.316,0v9.752a3.073,3.073,0,0,0,0,6v2.308a.658.658,0,1,0,1.316,0V72.12a3.074,3.074,0,0,0,0-6.005ZM72.6,70.874a1.757,1.757,0,1,1,1.757-1.757A1.76,1.76,0,0,1,72.6,70.874Zm15.6-1.757a3.079,3.079,0,0,0-2.415-3V56.364a.658.658,0,0,0-1.316,0v9.752a3.073,3.073,0,0,0,0,6v2.308a.658.658,0,1,0,1.316,0V72.12A3.081,3.081,0,0,0,88.2,69.117Zm-3.073,1.757a1.757,1.757,0,1,1,1.757-1.757A1.76,1.76,0,0,1,85.126,70.874Zm-6.185-7.188a.659.659,0,0,0-.658.658V74.427a.658.658,0,0,0,1.316,0V64.345A.658.658,0,0,0,78.941,63.687Zm0-4.1a.659.659,0,0,1-.658-.658V56.364a.658.658,0,1,1,1.316,0v2.562A.658.658,0,0,1,78.941,59.584Z" transform="translate(0 0)"/><path class="a" d="M368.436,196.917a3.073,3.073,0,1,1,3.073-3.073,3.077,3.077,0,0,1-3.073,3.073Zm0-4.831a1.757,1.757,0,1,0,1.757,1.757A1.76,1.76,0,0,0,368.436,192.086Z" transform="translate(-289.495 -132.171)"/></g></svg>