<svg xmlns="http://www.w3.org/2000/svg" width="36" height="36" viewBox="0 0 36 36"><defs><style>.a,.b{fill:#fff;}.a{opacity:0;}.c{fill:#ffdc32;}</style></defs><g transform="translate(-9.289 -6.431)"><g transform="translate(9.289 6.431)"><rect class="a" width="36" height="36"/><path class="b" d="M27.123,19.893a1.7,1.7,0,0,0,1.84-.366l8.144-8.144a1.689,1.689,0,1,0-2.388-2.388l-5.428,5.428a9.8,9.8,0,1,0-9.631,11.6H33.534a1.689,1.689,0,0,0,0-3.378H21.055l2.061-2.06a.845.845,0,0,0-1.194-1.2L18.74,22.575a6.375,6.375,0,0,1-2.614-.992l7.18-7.18a.845.845,0,1,0-1.194-1.2l-7.261,7.261a6.416,6.416,0,1,1,11.229-4.239v2.1a1.689,1.689,0,0,0,1.042,1.56" transform="translate(-9.863 -6.431)"/><path class="c" d="M46.025,37.944a1.689,1.689,0,0,0-2.109,1.122,1.67,1.67,0,0,0-.024.87L40.828,43a.845.845,0,0,0,1.194,1.2l3.019-3.02a6.41,6.41,0,0,1,2.31,1.292l-7.259,7.258a.845.845,0,0,0,1.194,1.2l7.191-7.19a6.418,6.418,0,1,1-11.741,3.584v-2.1a1.688,1.688,0,0,0-2.883-1.195L25.71,52.162A1.689,1.689,0,0,0,28.1,54.55l5.428-5.427a9.8,9.8,0,1,0,12.5-11.18" transform="translate(-17.115 -21.268)"/></g></g></svg>